<svg id="Layer_5" enable-background="new 0 0 64 64" height="512" viewBox="0 0 64 64" width="512" xmlns="http://www.w3.org/2000/svg" xmlns:xlink="http://www.w3.org/1999/xlink"><linearGradient id="SVGID_1_" gradientUnits="userSpaceOnUse" x1="32" x2="32" y1="63" y2="1"><stop offset="0" stop-color="#9f2fff"/><stop offset="1" stop-color="#0bb1d3"/></linearGradient><path d="m17 35c0-3.309-2.691-6-6-6s-6 2.691-6 6 2.691 6 6 6 6-2.691 6-6zm-10 0c0-2.206 1.794-4 4-4s4 1.794 4 4-1.794 4-4 4-4-1.794-4-4zm52 0h-4v-4h5v-3c0-4.601-3.472-8.4-7.933-8.931-.445-.347-.931-.629-1.429-.793l-8.709-3.483c.042-.261.071-.525.071-.793 0-2.128-1.342-3.937-3.22-4.658-2.673-5.149-7.907-8.342-13.724-8.342h-.801c-2.276 0-4.567.515-6.624 1.489l-2.959 1.402-4.085-1.634c-.514-.172-1.047-.258-1.587-.258-2.153 0-4.058 1.374-4.741 3.418-.404 1.209-.32 2.496.206 3.65-2.179 1.806-3.465 4.486-3.465 7.351 0 3.204 1.592 6.178 4.258 7.956l1.635 1.09-.032.444c-3.452 1.578-5.861 5.055-5.861 9.092 0 3.532 1.846 6.636 4.619 8.415l-.567 9.681c-2.305.445-4.052 2.472-4.052 4.904v5h26v-5c0-2.435-1.751-4.463-4.059-4.905l-2.446-36.12 21.814 8.725c-.195.736-.309 1.504-.309 2.3v3h5v4h-14v6h-4v8h12v4h-10v10h32v-4-8-2-1-7h-4zm-2 6h-4v-4h4zm-16 0v-4h4v4zm6-4h4v4h-4zm-7-23c0 .007-.002.013-.002.02l-5.179-2.071c.557-.592 1.337-.949 2.181-.949 1.654 0 3 1.346 3 3zm-21.513-9.703c1.791-.849 3.785-1.297 5.767-1.297h.801c4.592 0 8.764 2.286 11.239 6.052-1.389.197-2.619.974-3.408 2.124l-15.681-6.272zm-12.331 1.753c.41-1.227 1.552-2.051 2.844-2.051.324 0 .645.052.898.136l16.259 6.503-2.481 5.457-15.623-6.249c-.761-.254-1.377-.788-1.735-1.505s-.416-1.531-.162-2.291zm.211 16.659c-2.108-1.405-3.367-3.757-3.367-6.291 0-2.22.972-4.304 2.633-5.731.503.462 1.088.822 1.732 1.036l.495.198-.803 11.248zm-3.367 12.291c0-4.411 3.589-8 8-8h8.169l1.084 16h-9.253c-4.411 0-8-3.589-8-8zm8 10h9.388l.542 8h-13.87l.505-8.621c1.073.395 2.227.621 3.435.621zm14 13v3h-22v-3c0-1.654 1.346-3 3-3h16c1.654 0 3 1.346 3 3zm-5.966-33h-8.034c-.715 0-1.412.079-2.085.222l.895-12.521 8.625 3.45zm6.502-8.162 2.481-5.457 20.182 8.072c-2.238.735-4.089 2.324-5.169 4.382zm18.464 11.162c0-3.86 3.14-7 7-7s7 3.14 7 7v1h-14zm5 3h4v4h-4zm-14 6h4v4h-4zm26 20h-9c-.551 0-1-.449-1-1v-2c0-.551.449-1 1-1h9zm0-6h-9c-1.654 0-3 1.346-3 3v2c0 1.654 1.346 3 3 3h9v2h-28v-6h10v-6h18zm0-4h-30v-4h30zm-18 10h2v2h-2zm-4 0h2v2h-2zm-4 0h2v2h-2zm-24.515-48.329-1.857-.742.743-1.857 1.857.743zm7.428 2.972-1.857-.743.743-1.857 1.857.743zm-3.714-1.486-1.857-.743.743-1.856 1.857.742z" fill="url(#SVGID_1_)"/></svg>