<svg height="496pt" viewBox="0 0 496 496" width="496pt" xmlns="http://www.w3.org/2000/svg" xmlns:xlink="http://www.w3.org/1999/xlink"><linearGradient id="a" gradientUnits="userSpaceOnUse" x1="248" x2="248" y1="496" y2="0"><stop offset="0" stop-color="#9f2fff"/><stop offset="1" stop-color="#0bb1d3"/></linearGradient><path d="m455.519531 396.304688-63.519531-18.320313v-16.105469c8.457031-6.789062 15.144531-15.679687 19.289062-25.878906h4.710938c17.648438 0 32-14.351562 32-32v-56c0-41.703125-26.777344-77.175781-64-90.398438v-109.601562c8.824219 0 16-7.175781 16-16v-16c0-8.824219-7.175781-16-16-16h-368c-8.824219 0-16 7.175781-16 16v16c0 8.824219 7.175781 16 16 16v216c0 22.054688 17.945312 40 40 40h200c0 17.648438 14.351562 32 32 32h4.710938c4.144531 10.199219 10.832031 19.089844 19.289062 25.878906v16.105469l-63.519531 18.328125c-23.832031 6.863281-40.480469 28.992188-40.480469 53.800781v45.886719h288v-45.886719c0-24.808593-16.648438-46.9375-40.480469-53.808593zm-50.910156 1.96875-15.816406 36.910156-24.816407-19.847656 22.34375-22.34375zm11.390625-78.273438h-.550781c.328125-2.625.550781-5.289062.550781-8v-24c8.824219 0 16 7.175781 16 16s-7.175781 16-16 16zm-400-304h368l.007812 16h-368.007812zm40 272c-13.230469 0-24-10.769531-24-24v-216h336v105.449219c-5.214844-.882813-10.535156-1.449219-16-1.449219-17.496094 0-33.855469 4.785156-48 12.992188v-100.992188h-208v144h168.839844c-5.617188 12.191406-8.839844 25.710938-8.839844 40v40zm218.183594-96h-162.183594v-112h176v96.648438c-5.136719 4.617187-9.769531 9.742187-13.816406 15.351562zm13.816406 128c-8.824219 0-16-7.175781-16-16s7.175781-16 16-16v24c0 2.710938.222656 5.375.550781 8zm2.089844-48h-2.089844c-5.855469 0-11.273438 1.695312-16 4.449219v-28.449219c0-44.113281 35.886719-80 80-80s80 35.886719 80 80v28.449219c-4.726562-2.753907-10.144531-4.449219-16-4.449219h-2.089844c-4.8125-13.921875-17.910156-24-33.445312-24-3.832032 0-7.609375.617188-11.242188 1.824219l-17.222656 5.742187-17.230469-5.742187c-3.625-1.207031-7.410156-1.824219-11.242187-1.824219-15.535156 0-28.625 10.078125-33.4375 24zm13.910156 40v-28.472656c0-10.765625 8.761719-19.527344 19.527344-19.527344 2.105468 0 4.175781.335938 6.175781 1l22.296875 7.433594 22.296875-7.433594c1.992187-.664062 4.0625-1 6.175781-1 10.765625 0 19.527344 8.761719 19.527344 19.527344v28.472656c0 26.472656-21.527344 48-48 48s-48-21.527344-48-48zm48 64c8.488281 0 16.585938-1.695312 24-4.710938v9.398438l-24 24-24-24v-9.398438c7.414062 3.015626 15.511719 4.710938 24 4.710938zm-34.320312 16.992188 22.34375 22.34375-24.816407 19.847656-15.816406-36.910156zm162.320312 87.007812h-32v-48h-16v48h-160v-48h-16v48h-32v-29.886719c0-17.722656 11.886719-33.519531 28.910156-38.433593l30.984375-8.9375 24.890625 58.074218 43.214844-34.570312 43.207031 34.570312 24.890625-58.074218 30.980469 8.9375c17.035156 4.914062 28.921875 20.710937 28.921875 38.433593zm-136-32h16v16h-16zm-184-267.054688 89.886719-44.945312-89.886719-44.945312zm16-64 38.113281 19.054688-38.113281 19.054688zm-48 123.054688h112v16h-112v16h-16v-16h-48v-16h48v-16h16zm0 0" fill="url(#a)"/></svg>