<svg xmlns="http://www.w3.org/2000/svg" data-name="Layer 1" width="58.23" height="57.6" style=""><rect id="backgroundrect" width="100%" height="100%" x="0" y="0" fill="none" stroke="none"/>
  <title>facebook-logo</title>
  
<g class="currentLayer" style=""><title>Layer 1</title><path d="M34.190014648437455,29.02000366210939 c0,-2.19 0,-4 0,-5.84 c0.09000000000000002,-2.6900000000000004 1.33,-3.8600000000000003 4.05,-3.92 c1.19,0 2.39,0 3.79,0 v-7.69 c-5.11,-0.6500000000000001 -10.3,-1.58 -14.67,2.39 s-3.07,9.56 -3.35,14.870000000000001 H17.1400146484375 v8.23 h6.75 v20.46 c-10.36,-1.06 -24.72,-11.86 -23.85,-30.2 c0.6700000000000002,-14.2 13.08,-26.61 27,-27.29 A29.39,29.39 0 0 1 58.1400146484375,26.930003662109357 c1.34,14.28 -9.35,28.26 -23.93,30.67 V37.14000366210939 h6.5600000000000005 l1.37,-8.12 z" style="" id="svg_1" class="selected" opacity="1" fill="#ffffff" fill-opacity="1"/></g></svg>