<svg id="Layer_1" data-name="Layer 1" xmlns="http://www.w3.org/2000/svg" viewBox="0 0 58.23 57.6">
  <title>facebook-logo</title>
  <path d="M646.05,360.61c0-2.19,0-4,0-5.84.09-2.69,1.33-3.86,4.05-3.92,1.19,0,2.39,0,3.79,0v-7.69c-5.11-.65-10.3-1.58-14.67,2.39s-3.07,9.56-3.35,14.87H629v8.23h6.75v20.46c-10.36-1.06-24.72-11.86-23.85-30.2.67-14.2,13.08-26.61,27-27.29A29.39,29.39,0,0,1,670,358.52c1.34,14.28-9.35,28.26-23.93,30.67V368.73h6.56l1.37-8.12Z" transform="translate(-611.86 -331.59)" style="fill: #1877f1"/>
</svg>
