<svg height="496pt" viewBox="0 0 496 496" width="496pt" xmlns="http://www.w3.org/2000/svg" xmlns:xlink="http://www.w3.org/1999/xlink"><linearGradient id="a" gradientUnits="userSpaceOnUse" x1="248" x2="248" y1="496" y2="0"><stop offset="0" stop-color="#9f2fff"/><stop offset="1" stop-color="#0bb1d3"/></linearGradient><path d="m440 0h-384c-30.878906 0-56 25.121094-56 56v384c0 30.878906 25.121094 56 56 56h440v-440c0-30.878906-25.121094-56-56-56zm-424 56c0-22.054688 17.945312-40 40-40h184v88h24c13.230469 0 24 10.769531 24 24s-10.769531 24-24 24h-24v88h-88v24c0 13.230469-10.769531 24-24 24s-24-10.769531-24-24v-24h-88zm40 424c-22.054688 0-40-17.945312-40-40v-184h72v8c0 22.054688 17.945312 40 40 40s40-17.945312 40-40v-8h72v72h-8c-22.054688 0-40 17.945312-40 40s17.945312 40 40 40h8v72zm424 0h-224v-88h-24c-13.230469 0-24-10.769531-24-24s10.769531-24 24-24h24v-88h72v8c0 22.054688 17.945312 40 40 40s40-17.945312 40-40v-8h72zm0-240h-88v24c0 13.230469-10.769531 24-24 24s-24-10.769531-24-24v-24h-88v-72h8c22.054688 0 40-17.945312 40-40s-17.945312-40-40-40h-8v-72h184c22.054688 0 40 17.945312 40 40zm-109.945312 90.632812-2.054688 2.054688-2.054688-2.054688c-6.855468-6.855468-15.96875-10.632812-25.65625-10.632812-20.007812 0-36.289062 16.28125-36.289062 36.289062 0 9.6875 3.777344 18.808594 10.632812 25.65625l53.367188 53.367188 53.367188-53.367188c6.855468-6.855468 10.632812-15.96875 10.632812-25.65625 0-20.007812-16.28125-36.289062-36.289062-36.289062-9.6875 0-18.800782 3.777344-25.65625 10.632812zm45.945312 25.65625c0 5.414063-2.113281 10.511719-5.945312 14.34375l-42.054688 42.054688-42.054688-42.054688c-3.832031-3.832031-5.945312-8.929687-5.945312-14.34375 0-11.183593 9.105469-20.289062 20.289062-20.289062 5.414063 0 10.511719 2.113281 14.34375 5.945312l13.367188 13.367188 13.367188-13.367188c3.832031-3.832031 8.929687-5.945312 14.34375-5.945312 11.183593 0 20.289062 9.105469 20.289062 20.289062zm-288-36.289062c-26.472656 0-48 21.527344-48 48s21.527344 48 48 48 48-21.527344 48-48-21.527344-48-48-48zm0 80c-17.648438 0-32-14.351562-32-32s14.351562-32 32-32 32 14.351562 32 32-14.351562 32-32 32zm182.382812-272 57.617188 86.425781 57.617188-86.425781-57.617188-86.425781zm57.617188 57.574219-38.382812-57.574219 38.382812-57.574219 38.382812 57.574219zm-240.257812-9.589844c2.378906.488281 8.53125 6.183594 12.203124 9.589844 7.144532 6.625 14.480469 13.425781 21.894532 13.425781 2.054687 0 4.121094-.519531 6.183594-1.710938 9.71875-5.625 6.785156-18.433593 3.9375-30.816406-1.015626-4.441406-2.679688-11.6875-2.3125-14.375 2.113281-1.554687 8.945312-3.625 13.121093-4.890625 11.824219-3.589843 25.230469-7.65625 25.230469-19.207031s-13.40625-15.617188-25.230469-19.199219c-4.175781-1.265625-11-3.335937-13.121093-4.890625-.367188-2.679687 1.296874-9.933594 2.3125-14.367187 2.839843-12.382813 5.78125-25.191407-3.9375-30.808594-9.519532-5.511719-18.960938 3.25-28.078126 11.707031-3.671874 3.40625-9.824218 9.101563-11.6875 9.589844-2.378906-.488281-8.53125-6.183594-12.203124-9.589844-9.125-8.457031-18.550782-17.195312-28.078126-11.714844-9.71875 5.625-6.785156 18.433594-3.9375 30.816407 1.015626 4.441406 2.679688 11.6875 2.3125 14.378906-2.113281 1.550781-8.945312 3.621094-13.121093 4.886719-11.824219 3.574218-25.230469 7.640625-25.230469 19.191406s13.40625 15.617188 25.230469 19.199219c4.175781 1.265625 11 3.335937 13.121093 4.890625.367188 2.679687-1.296874 9.933594-2.3125 14.367187-2.839843 12.382813-5.78125 25.191407 3.9375 30.808594 9.519532 5.519531 18.960938-3.25 28.078126-11.707031 3.671874-3.390625 9.824218-9.09375 11.6875-9.574219zm-30.230469 4.609375c.457031-3.304688 1.433593-7.5625 2.121093-10.546875 2.296876-10 4.464844-19.445313.640626-26.0625-3.722657-6.433594-12.378907-9.054687-22.394532-12.097656-3.320312-1-8.183594-2.480469-11.398437-3.886719 3.214843-1.40625 8.078125-2.886719 11.390625-3.886719 10.015625-3.035156 18.671875-5.664062 22.394531-12.097656 3.832031-6.625 1.664063-16.0625-.640625-26.0625-.679688-2.992187-1.664062-7.242187-2.121094-10.546875 2.519532 1.984375 5.535156 4.785156 7.664063 6.761719 7.6875 7.113281 14.9375 13.832031 22.832031 13.832031s15.144531-6.71875 22.824219-13.832031c2.136719-1.976563 5.152343-4.777344 7.664062-6.761719-.457031 3.304688-1.433593 7.5625-2.121093 10.546875-2.296876 10-4.464844 19.445313-.640626 26.0625 3.722657 6.433594 12.378907 9.054687 22.394532 12.097656 3.320312 1 8.175781 2.480469 11.390625 3.886719-3.214844 1.40625-8.078125 2.886719-11.390625 3.886719-10.015625 3.035156-18.671875 5.664062-22.394532 12.097656-3.832031 6.625-1.664062 16.0625.640626 26.0625.679687 2.992187 1.664062 7.242187 2.121093 10.546875-2.519531-1.984375-5.535156-4.785156-7.664062-6.761719-7.679688-7.113281-14.929688-13.832031-22.824219-13.832031s-15.144531 6.71875-22.824219 13.832031c-2.128906 1.976563-5.152343 4.777344-7.664062 6.761719zm0 0" fill="url(#a)"/></svg>