<svg id="Layer_5" enable-background="new 0 0 64 64" height="512" viewBox="0 0 64 64" width="512" xmlns="http://www.w3.org/2000/svg" xmlns:xlink="http://www.w3.org/1999/xlink"><linearGradient id="SVGID_1_" gradientUnits="userSpaceOnUse" x1="32" x2="32" y1="63" y2="1"><stop offset="0" stop-color="#9f2fff"/><stop offset="1" stop-color="#0bb1d3"/></linearGradient><path d="m38.229 9.098-1.131-1.649c.59-.405 1.216-.767 1.86-1.077l.867 1.803c-.553.264-1.09.575-1.596.923zm4.841-3.965c-.709.098-1.417.252-2.103.459l.576 1.915c.588-.177 1.193-.31 1.8-.393zm-6.278 5.121-1.369-1.458c-.522.491-1.011 1.025-1.45 1.587l1.574 1.232c.378-.481.797-.939 1.245-1.361zm26.208 8.746v.218c0 3.948-1.325 7.846-3.732 10.975l-6.268 8.147v4.66c0 4.411-3.589 8-8 8-4.406 0-7.99-3.58-7.999-7.984-.907 1.821-2.1 3.497-3.566 4.964l-2.435 2.434v12.586h-2v-13.414l3.021-3.021c2.358-2.358 3.938-5.312 4.612-8.565h-19.633c-3.309 0-6-2.691-6-6 0-.263.023-.521.056-.775-1.879-1.052-3.056-3.021-3.056-5.225 0-3.424 2.928-6.204 6.349-5.989.829-2.372 3.071-4.011 5.651-4.011 1.498 0 2.865.555 3.918 1.466.991-.447 2.119-.559 3.179-.329.052-.499.134-.989.226-1.476-2.273-1.084-4.787-1.661-7.323-1.661-9.374 0-17 7.626-17 17v9.279l2.937.979.976 10.742h9.087c3.859 0 7-3.141 7-7v-1h2v1c0 4.963-4.037 9-9 9h-1v9h-2v-9h-7.913l-1.024-11.258-3.063-1.021v-10.721c0-10.477 8.523-19 19-19 2.692 0 5.366.578 7.805 1.675 2.276-7.333 9.123-12.675 17.195-12.675 9.925 0 18 8.075 18 18zm-46 17h18.2l-4.468-5.807c-2.407-3.129-3.732-7.027-3.732-10.975v-.038c-.559-.194-1.172-.216-1.746-.073.474.859.746 1.845.746 2.893h-2c0-2.206-1.794-4-4-4-1.937 0-3.589 1.388-3.928 3.301l-.182 1.028-1.02-.227c-.309-.068-.595-.102-.87-.102-2.206 0-4 1.794-4 4 0 1.32.639 2.508 1.675 3.246 1-1.925 3.009-3.246 5.325-3.246 3.309 0 6 2.691 6 6h-2c0-2.206-1.794-4-4-4s-4 1.794-4 4 1.794 4 4 4zm22 3v2h12v-2zm12 4h-12c0 3.309 2.691 6 6 6s6-2.691 6-6zm10-24c0-8.822-7.178-16-16-16s-16 7.178-16 16v.218c0 3.51 1.179 6.974 3.318 9.755l6.174 8.027h13.016l6.174-8.027c2.139-2.781 3.318-6.245 3.318-9.755zm-15-6h2v6h-2v10h-2v-10h-2v-6h2v-2h2zm0 2h-2v2h2zm-8 6h2v6h-2v4h-2v-4h-2v-6h2v-8h2zm0 2h-2v2h2zm16-12h2v12h-2v4h-2v-4h-2v-12h2v-2h2zm0 2h-2v8h2z" fill="url(#SVGID_1_)"/></svg>