<svg height="496pt" viewBox="0 0 496 496" width="496pt" xmlns="http://www.w3.org/2000/svg" xmlns:xlink="http://www.w3.org/1999/xlink"><linearGradient id="a" gradientUnits="userSpaceOnUse" x1="248" x2="248" y1="496" y2="0"><stop offset="0" stop-color="#9f2fff"/><stop offset="1" stop-color="#0bb1d3"/></linearGradient><path d="m400 179.296875-144-80v-35.296875h80v-64h-96v99.289062l-144 80v76.710938h-96v48h16v192h464v-192h16v-48h-96zm-144-163.296875h64v32h-64zm105.128906 160h-226.257812l113.128906-62.847656zm-249.128906 16h272v64h-16v-48h-48v48h-16v-48h-48v48h-16v-48h-48v48h-16v-48h-48v48h-16zm240 64h-16v-32h16zm-128 180v24l-16 12v-48zm16 32v-40l-16-12h48l-16 12v40l16 12h-48zm48-44v48l-16-12v-24zm-96-24v80h-48v-96h208v96h-48v-80zm40-48c0-8.824219 7.175781-16 16-16s16 7.175781 16 16-7.175781 16-16 16-16-7.175781-16-16zm43.550781 16c2.753907-4.726562 4.449219-10.144531 4.449219-16 0-17.648438-14.351562-32-32-32s-32 14.351562-32 32c0 5.855469 1.695312 11.273438 4.449219 16h-64.074219l91.625-85.089844 91.625 85.089844zm-51.550781-112h-16v-32h16zm64 0h-16v-32h16zm-128 0h-16v-32h16zm-144 16h220.246094l-17.230469 16h-203.015625zm185.785156 32-73.785156 68.503906v11.496094h-96v-80zm-169.785156 96h96v80h-96zm336 80v-80h96v80zm96-96h-96v-11.496094l-73.785156-68.503906h169.785156zm16-96h-203.015625l-17.230469-16h220.246094zm-432 128v48h64v-48zm48 32h-32v-16h32zm288 16h64v-48h-64zm16-32h32v16h-32zm48-112h-64v48h64zm-16 32h-32v-16h32zm-320 16v-48h-64v48zm-48-32h32v16h-32zm0 0" fill="url(#a)"/></svg>