<?xml version="1.0" standalone="no"?>
<!DOCTYPE svg PUBLIC "-//W3C//DTD SVG 20010904//EN"
 "http://www.w3.org/TR/2001/REC-SVG-20010904/DTD/svg10.dtd">
<svg version="1.0" xmlns="http://www.w3.org/2000/svg"
 width="1816.000000pt" height="2045.000000pt" viewBox="0 0 1816.000000 2045.000000"
 preserveAspectRatio="xMidYMid meet">
<metadata>
Created by potrace 1.15, written by Peter Selinger 2001-2017
</metadata>
<g transform="translate(0.000000,2045.000000) scale(0.100000,-0.100000)"
fill="#000000" stroke="none">
<path d="M9090 20377 c-3 -3 -57 -9 -120 -12 -111 -5 -151 -9 -235 -19 -79
-10 -187 -27 -255 -41 -14 -3 -34 -7 -45 -9 -11 -2 -20 -5 -20 -6 0 -1 -9 -4
-20 -6 -11 -1 -30 -5 -42 -8 -26 -7 -60 -15 -83 -21 -8 -2 -17 -4 -20 -6 -3
-1 -9 -3 -15 -4 -5 -2 -13 -4 -17 -5 -5 -1 -12 -4 -18 -5 -5 -1 -11 -3 -12 -5
-2 -1 -11 -3 -20 -6 -10 -2 -26 -6 -35 -8 -10 -3 -19 -5 -20 -6 -2 -2 -7 -4
-13 -5 -5 -1 -12 -4 -15 -5 -3 -1 -9 -4 -15 -5 -5 -1 -12 -4 -15 -5 -3 -1 -8
-3 -12 -5 -5 -1 -16 -5 -25 -8 -31 -12 -48 -17 -52 -14 -1 1 -10 -4 -19 -12
-10 -7 -17 -10 -17 -6 0 4 -11 0 -25 -9 -14 -9 -25 -14 -25 -10 0 3 -11 -1
-25 -10 -14 -9 -25 -14 -25 -10 0 3 -15 -4 -33 -15 -19 -11 -37 -18 -40 -14
-4 3 -7 1 -7 -5 0 -7 -3 -11 -7 -10 -10 3 -267 -124 -271 -134 -2 -4 -19 -12
-38 -18 -19 -6 -34 -16 -34 -21 0 -5 -6 -9 -14 -9 -8 0 -21 -6 -28 -12 -20
-19 -50 -38 -70 -44 -10 -4 -18 -10 -18 -15 0 -5 -7 -9 -15 -9 -8 0 -15 -4
-15 -10 0 -5 -7 -10 -15 -10 -8 0 -15 -4 -15 -10 0 -5 -5 -10 -11 -10 -6 0
-17 -6 -24 -12 -33 -30 -45 -38 -54 -38 -5 0 -11 -7 -15 -15 -3 -8 -12 -15
-20 -15 -7 0 -16 -7 -20 -15 -3 -8 -11 -15 -18 -15 -8 0 -21 -8 -30 -17 -9
-10 -29 -27 -43 -38 -15 -11 -42 -33 -60 -50 -19 -16 -66 -59 -106 -95 -106
-95 -165 -156 -301 -314 -15 -17 -37 -40 -48 -52 -11 -12 -20 -25 -20 -30 0
-5 -8 -17 -17 -26 -35 -34 -53 -55 -53 -62 0 -4 -6 -14 -12 -21 -30 -33 -38
-45 -38 -55 0 -5 -3 -10 -8 -10 -4 0 -16 -16 -26 -35 -11 -19 -22 -35 -26 -35
-4 0 -15 -18 -26 -40 -10 -22 -22 -40 -26 -40 -5 0 -8 -7 -8 -15 0 -8 -5 -15
-11 -15 -5 0 -7 -4 -4 -10 3 -5 1 -10 -4 -10 -6 0 -11 -7 -11 -15 0 -8 -4 -15
-9 -15 -5 0 -15 -16 -21 -35 -6 -19 -16 -35 -21 -35 -6 0 -7 -4 -4 -10 3 -5 2
-10 -4 -10 -5 0 -15 -16 -21 -35 -6 -19 -16 -35 -21 -35 -6 0 -8 -4 -5 -9 4
-5 3 -11 -1 -13 -10 -4 -138 -261 -135 -270 1 -5 -3 -8 -10 -8 -6 0 -8 -3 -5
-7 4 -3 -3 -21 -14 -40 -11 -18 -18 -33 -14 -33 4 0 -3 -16 -15 -35 -12 -19
-19 -35 -16 -35 4 0 -1 -11 -10 -25 -9 -14 -13 -25 -10 -25 4 0 -1 -11 -10
-25 -9 -14 -13 -25 -9 -25 4 0 1 -7 -6 -17 -8 -9 -13 -17 -11 -17 3 -1 -2 -20
-15 -53 -3 -10 -7 -21 -8 -25 -2 -5 -4 -10 -5 -13 -1 -3 -4 -9 -5 -15 -1 -5
-4 -12 -5 -15 -1 -3 -3 -8 -4 -12 -1 -5 -5 -14 -9 -20 -5 -7 -6 -13 -3 -13 3
0 -2 -16 -10 -35 -8 -19 -14 -37 -14 -40 0 -3 0 -6 -1 -7 0 -2 -2 -10 -4 -18
-2 -8 -7 -26 -10 -40 -3 -14 -7 -29 -8 -35 -2 -5 -6 -16 -10 -22 -5 -7 -6 -17
-2 -22 3 -5 1 -12 -4 -16 -5 -3 -10 -13 -9 -23 0 -9 -3 -28 -7 -42 -14 -54
-29 -137 -50 -280 -47 -317 -34 -721 30 -1012 3 -13 7 -34 9 -48 5 -23 8 -37
21 -90 3 -11 7 -29 10 -40 8 -32 16 -64 20 -80 2 -8 4 -16 5 -17 2 -2 4 -7 5
-13 1 -5 3 -11 5 -12 1 -2 3 -11 6 -20 2 -10 6 -26 8 -35 3 -10 5 -19 6 -20 2
-2 4 -7 5 -13 1 -5 4 -12 5 -15 1 -3 3 -8 5 -12 1 -5 5 -17 9 -28 5 -11 10
-27 14 -35 3 -8 6 -17 6 -20 1 -3 5 -11 9 -17 5 -7 5 -13 1 -13 -3 0 1 -11 10
-25 9 -14 14 -25 10 -25 -3 0 1 -11 10 -25 9 -14 14 -25 10 -25 -3 0 4 -15 15
-33 11 -19 18 -37 14 -40 -3 -4 -1 -7 5 -7 7 0 11 -3 10 -7 -3 -11 133 -285
149 -301 7 -7 13 -19 13 -26 0 -7 9 -23 20 -36 11 -13 20 -29 20 -37 0 -7 4
-13 9 -13 5 0 13 -10 17 -22 3 -12 13 -28 20 -36 8 -7 14 -20 14 -28 0 -8 5
-14 10 -14 6 0 10 -7 10 -15 0 -8 5 -15 10 -15 6 0 10 -7 10 -15 0 -8 5 -15
10 -15 6 0 10 -7 10 -15 0 -8 5 -15 10 -15 6 0 10 -7 10 -15 0 -8 5 -15 10
-15 6 0 10 -5 10 -11 0 -6 6 -17 13 -24 27 -31 37 -44 37 -50 0 -4 6 -12 13
-19 6 -8 19 -24 27 -36 8 -12 22 -30 30 -40 8 -10 22 -28 30 -40 8 -12 24 -32
35 -45 11 -13 30 -36 42 -52 121 -153 349 -396 468 -498 25 -22 59 -51 75 -65
16 -14 41 -34 55 -45 14 -11 34 -27 45 -35 10 -8 28 -22 40 -30 12 -8 28 -21
36 -27 7 -7 17 -13 23 -13 6 0 11 -4 11 -10 0 -5 7 -10 15 -10 8 0 15 -4 15
-10 0 -5 7 -10 15 -10 8 0 15 -4 15 -10 0 -5 7 -10 15 -10 8 0 15 -4 15 -10 0
-5 7 -10 15 -10 8 0 15 -4 15 -10 0 -5 11 -12 25 -16 14 -3 25 -10 25 -14 0
-4 11 -11 25 -14 14 -4 25 -11 25 -17 0 -6 5 -7 10 -4 6 3 10 2 10 -3 0 -5 20
-17 45 -26 25 -10 45 -22 45 -27 0 -6 5 -7 10 -4 6 3 10 1 10 -5 0 -6 5 -8 10
-5 6 3 10 1 10 -5 0 -6 5 -8 10 -5 6 3 10 1 10 -5 0 -6 5 -8 10 -5 6 3 10 1
10 -6 0 -7 3 -9 7 -6 3 4 30 -7 60 -23 29 -17 53 -28 53 -24 0 3 16 -4 35 -16
19 -12 35 -19 35 -16 0 4 12 -2 27 -11 15 -10 28 -17 30 -15 2 1 5 1 8 1 13
-3 21 -6 38 -12 9 -4 25 -10 35 -14 9 -3 20 -7 25 -8 4 -2 9 -4 12 -5 3 -1 8
-3 13 -4 4 -1 13 -5 20 -9 6 -5 12 -6 12 -3 0 3 16 -2 35 -10 19 -8 37 -14 40
-14 3 0 6 0 8 -1 1 0 9 -2 17 -4 16 -4 48 -12 80 -20 11 -3 29 -7 40 -10 11
-3 30 -8 43 -11 12 -3 32 -7 45 -10 12 -2 33 -6 47 -9 75 -15 133 -24 190 -31
22 -3 54 -6 70 -8 184 -24 562 -24 770 -1 17 2 50 6 75 9 44 5 93 13 138 21
12 3 32 7 45 9 12 2 36 7 52 11 17 3 39 8 50 10 11 2 31 7 45 10 14 4 34 8 45
9 11 2 22 5 25 6 3 2 10 4 15 5 6 2 12 4 15 5 8 3 33 9 65 15 17 3 37 8 45 12
8 3 18 7 23 8 4 2 9 4 12 5 3 1 10 4 15 5 6 1 12 4 15 5 3 1 8 3 13 4 57 15
99 30 110 38 6 6 12 7 12 3 0 -4 7 -2 15 5 8 7 15 9 15 5 0 -4 7 -2 15 5 8 7
15 9 15 5 0 -4 11 0 25 9 14 9 25 14 25 10 0 -3 11 1 25 10 14 9 25 14 25 10
0 -3 16 4 35 16 19 12 35 19 35 15 0 -3 20 6 45 21 25 14 45 23 45 20 0 -9
184 85 188 95 2 5 8 7 13 3 5 -3 9 -1 9 5 0 5 16 15 35 21 19 6 35 15 35 20 0
5 16 14 35 20 19 6 35 15 35 20 0 4 11 11 25 14 14 4 25 11 25 16 0 6 7 10 15
10 8 0 15 5 15 10 0 6 7 10 15 10 8 0 15 5 15 10 0 6 6 10 13 10 7 0 23 9 35
20 12 11 26 20 32 20 5 0 10 5 10 10 0 6 7 10 15 10 8 0 15 5 15 10 0 6 6 10
14 10 8 0 16 7 20 15 3 8 12 15 20 15 7 0 16 7 20 15 3 8 12 15 20 15 7 0 16
7 20 15 3 8 11 15 17 15 7 0 19 7 28 15 25 23 77 67 117 100 48 39 350 341
389 389 26 32 52 63 99 116 7 8 16 23 19 33 4 9 11 17 17 17 5 0 10 7 10 15 0
9 7 18 15 21 8 4 15 10 15 16 0 5 6 16 13 23 29 33 37 45 37 55 0 5 5 10 10
10 6 0 10 7 10 15 0 8 5 15 10 15 6 0 10 7 10 15 0 8 5 15 10 15 6 0 10 7 10
15 0 8 5 15 10 15 6 0 10 6 10 14 0 8 6 21 14 28 7 8 17 24 20 36 4 12 12 22
17 22 5 0 9 6 9 14 0 8 7 21 15 29 8 8 22 33 31 56 9 23 20 41 26 41 5 0 6 5
3 10 -3 6 -1 10 5 10 6 0 8 5 5 10 -3 6 -2 10 3 10 10 0 49 80 45 92 -2 5 2 8
9 8 6 0 8 3 5 7 -4 3 4 25 18 48 13 23 21 45 18 49 -3 3 0 6 7 6 7 0 10 3 7 7
-4 3 0 17 8 30 9 13 13 23 9 23 -3 0 1 11 10 25 9 14 14 25 11 25 -3 0 0 10 7
23 7 12 13 24 13 27 1 3 7 18 13 33 7 16 12 34 12 41 0 7 3 16 8 20 4 4 8 12
8 17 1 5 3 11 4 14 1 3 4 10 5 15 1 6 3 11 4 13 2 1 4 13 7 27 2 14 7 32 11
40 3 8 7 18 8 23 2 4 3 8 5 10 1 2 6 20 13 50 1 6 6 18 10 25 5 6 6 16 2 21
-3 5 -1 12 5 16 6 4 8 11 4 16 -3 5 -1 15 4 22 5 7 10 19 10 27 0 8 3 26 7 40
3 14 8 34 10 45 2 11 6 32 9 48 16 78 17 82 32 212 4 33 8 173 8 310 0 224 -4
296 -19 415 -2 19 -7 53 -10 75 -2 22 -7 51 -9 65 -3 14 -7 43 -11 65 -4 22
-8 49 -10 60 -2 11 -6 31 -9 45 -2 14 -7 36 -11 50 -4 14 -8 34 -10 45 -2 11
-7 31 -10 45 -4 14 -7 33 -7 42 1 10 -4 20 -9 23 -5 4 -7 11 -4 16 4 5 3 15
-2 22 -4 6 -8 17 -10 22 -1 6 -5 21 -8 35 -3 14 -8 32 -10 40 -2 8 -4 15 -5
15 -1 0 -3 8 -6 18 -2 9 -6 25 -8 35 -3 9 -5 18 -6 20 -2 1 -3 5 -4 10 -1 4
-5 13 -9 20 -5 6 -6 12 -3 12 4 0 -11 48 -50 160 -3 8 -5 17 -5 20 -1 3 -5 11
-11 18 -6 6 -7 12 -3 12 4 0 2 7 -5 15 -7 8 -9 15 -6 15 4 0 1 10 -6 23 -7 12
-13 24 -13 27 0 3 -6 15 -13 28 -7 12 -10 22 -7 22 3 0 -2 11 -11 25 -9 14
-13 25 -10 25 4 0 -1 11 -10 25 -9 14 -13 25 -9 25 3 0 -3 16 -15 35 -12 19
-19 35 -15 35 3 0 -10 29 -29 63 -20 35 -33 67 -29 70 3 4 1 7 -6 7 -7 0 -9 5
-6 10 3 6 1 10 -5 10 -6 0 -8 5 -5 10 3 6 1 10 -5 10 -6 0 -9 4 -5 9 3 5 -1
16 -9 24 -8 8 -12 17 -9 21 4 3 1 6 -6 6 -7 0 -9 5 -6 10 3 6 2 10 -3 10 -6 0
-20 25 -33 55 -12 30 -27 55 -31 55 -5 0 -7 4 -4 9 4 5 2 11 -2 13 -10 3 -34
46 -53 91 -6 15 -15 27 -20 27 -5 0 -9 7 -9 15 0 8 -4 15 -10 15 -5 0 -12 11
-16 25 -3 14 -10 25 -15 25 -5 0 -9 7 -9 15 0 8 -4 15 -10 15 -5 0 -10 7 -10
15 0 8 -4 15 -10 15 -5 0 -10 7 -10 15 0 8 -4 15 -10 15 -5 0 -10 5 -10 11 0
6 -6 17 -12 24 -30 33 -38 45 -38 54 0 5 -7 11 -15 15 -8 3 -15 12 -15 21 0 8
-5 15 -10 15 -6 0 -14 8 -17 17 -4 9 -14 24 -22 34 -9 10 -25 30 -36 44 -62
83 -345 366 -405 405 -13 8 -30 23 -39 33 -8 9 -19 17 -24 17 -5 0 -15 6 -22
13 -33 29 -45 37 -55 37 -5 0 -10 4 -10 8 0 4 -27 24 -60 43 -33 18 -60 37
-60 42 0 4 -7 7 -15 7 -8 0 -15 4 -15 9 0 5 -11 12 -25 15 -14 4 -25 11 -25
16 0 6 -6 10 -13 10 -8 0 -24 9 -37 20 -13 11 -29 20 -36 20 -7 0 -19 6 -26
13 -15 15 -246 131 -250 126 -2 -2 -20 7 -40 19 -21 13 -38 20 -38 17 0 -4
-11 0 -25 9 -14 9 -25 14 -25 10 0 -3 -11 1 -25 10 -14 9 -25 14 -25 11 0 -3
-10 0 -22 7 -13 7 -26 13 -30 14 -5 1 -10 3 -13 4 -3 1 -9 4 -15 5 -5 1 -12 4
-15 5 -3 1 -9 4 -15 5 -5 1 -12 4 -15 5 -3 1 -9 4 -15 5 -5 1 -12 4 -15 5 -3
1 -9 4 -15 5 -5 1 -12 4 -15 5 -3 1 -9 4 -15 5 -5 1 -12 4 -15 5 -3 1 -8 3
-12 5 -5 1 -15 5 -23 8 -8 4 -26 9 -40 11 -14 3 -27 5 -30 6 -3 1 -9 3 -15 5
-5 1 -12 3 -15 4 -7 3 -42 11 -65 15 -11 2 -20 4 -20 6 0 1 -9 3 -20 5 -11 2
-31 6 -45 10 -96 26 -360 63 -490 69 -30 2 -113 7 -185 11 -71 4 -132 5 -135
2z"/>
<path d="M532 16587 c-18 -12 -32 -27 -32 -34 0 -6 -5 -13 -11 -15 -5 -2 -11
-10 -13 -18 -2 -8 -6 -23 -10 -32 -4 -9 -9 -25 -11 -35 -2 -10 -4 -20 -5 -23
-1 -3 -3 -9 -5 -15 -1 -5 -3 -12 -5 -15 -1 -3 -4 -14 -6 -25 -2 -11 -6 -31 -8
-45 -32 -167 -56 -427 -71 -765 -23 -527 -24 -589 -31 -2967 l-6 -2106 22 -12
c12 -6 30 -19 40 -28 37 -32 115 -96 156 -127 14 -11 39 -31 55 -45 15 -14 40
-34 55 -45 14 -11 39 -31 54 -45 15 -14 40 -34 55 -45 15 -11 37 -30 50 -42
12 -13 26 -23 30 -23 4 0 18 -10 30 -22 13 -13 35 -32 50 -43 15 -11 40 -31
56 -45 15 -14 40 -34 55 -45 14 -11 39 -31 54 -45 27 -24 52 -44 106 -85 14
-11 39 -31 55 -45 15 -14 40 -34 55 -45 14 -11 39 -31 54 -45 15 -14 40 -34
55 -45 15 -11 37 -30 50 -42 12 -13 26 -23 30 -23 4 0 18 -10 30 -22 13 -13
35 -32 50 -43 15 -11 40 -31 56 -45 15 -14 40 -34 55 -45 14 -11 39 -31 55
-45 15 -14 40 -34 54 -45 41 -31 74 -58 105 -85 16 -14 41 -34 56 -45 14 -11
39 -31 54 -45 15 -14 40 -34 55 -45 15 -11 37 -30 50 -42 12 -13 26 -23 30
-23 4 0 18 -10 30 -22 13 -13 35 -32 50 -43 15 -11 40 -31 56 -45 15 -14 40
-34 55 -45 14 -11 39 -31 54 -45 27 -24 52 -44 106 -85 14 -11 39 -31 55 -45
15 -14 40 -34 55 -45 14 -11 39 -31 54 -45 15 -14 40 -34 54 -45 15 -11 40
-31 56 -45 28 -25 53 -45 106 -85 14 -11 39 -31 55 -45 15 -14 40 -34 55 -45
14 -11 39 -31 54 -45 15 -14 40 -34 55 -45 15 -11 37 -30 50 -42 12 -13 26
-23 30 -23 4 0 18 -10 30 -23 13 -12 35 -31 50 -42 15 -11 40 -31 56 -45 15
-14 40 -34 55 -45 14 -11 39 -31 55 -45 27 -24 42 -36 114 -95 17 -13 41 -33
55 -45 14 -11 39 -31 55 -45 44 -35 81 -67 114 -95 16 -14 41 -34 55 -45 15
-11 40 -31 56 -45 16 -14 41 -34 56 -45 14 -11 39 -31 55 -45 27 -24 42 -36
114 -95 44 -35 81 -67 114 -95 16 -14 41 -34 55 -45 15 -11 40 -31 56 -45 16
-14 41 -34 56 -45 14 -11 39 -31 55 -45 16 -14 41 -35 56 -48 16 -12 40 -32
55 -45 14 -12 40 -33 58 -47 17 -14 44 -36 60 -50 16 -14 43 -36 61 -50 48
-38 78 -62 109 -90 16 -14 43 -36 61 -50 17 -14 44 -35 58 -47 14 -12 38 -32
54 -45 15 -13 40 -34 56 -48 16 -14 41 -34 55 -45 15 -11 40 -31 56 -45 28
-24 46 -39 115 -95 37 -30 76 -62 115 -95 16 -14 41 -34 56 -45 14 -11 39 -31
55 -45 16 -14 42 -36 59 -50 17 -14 43 -36 59 -50 16 -14 41 -34 55 -45 15
-11 40 -31 56 -45 17 -14 42 -35 57 -48 16 -12 40 -32 55 -45 15 -12 41 -33
59 -47 17 -14 44 -36 60 -50 16 -14 42 -36 59 -50 17 -14 43 -36 59 -50 16
-14 41 -34 55 -45 25 -19 67 -53 110 -92 17 -15 18 -17 3 -22 -21 -8 -656 -5
-1062 3 -170 4 -395 9 -500 11 -104 2 -284 7 -400 10 -448 12 -556 15 -730 20
-214 6 -513 14 -1180 30 -115 3 -293 7 -395 10 -102 2 -286 7 -410 10 -124 3
-310 8 -415 10 -104 3 -280 7 -390 10 -110 2 -255 6 -322 9 l-123 4 0 -2826 0
-2827 8809 3 8810 2 -5 213 c-9 369 -13 536 -19 762 -3 121 -8 299 -10 395 -2
96 -7 272 -10 390 -6 243 -13 501 -20 765 -5 194 -13 501 -20 790 -12 436 -16
581 -20 750 -2 99 -7 277 -10 395 -4 118 -8 287 -10 375 -12 561 -15 649 -22
656 -5 4 -1286 10 -2848 13 -1562 3 -2868 7 -2902 9 -34 1 -65 6 -68 9 -4 4 6
14 22 24 15 10 37 27 49 39 12 11 33 29 48 40 15 11 40 31 56 45 17 14 43 36
60 50 17 14 43 36 59 50 16 14 41 34 55 45 15 11 40 31 56 45 17 14 43 36 60
50 17 14 43 36 59 50 16 14 41 34 55 45 15 11 40 31 56 45 32 27 65 54 118 98
19 15 46 37 60 49 15 13 39 33 55 45 15 13 40 34 56 48 16 14 41 34 55 45 15
11 40 31 56 45 28 24 46 39 115 95 44 35 81 67 114 95 16 14 41 34 55 45 15
11 40 31 56 45 39 33 78 65 115 95 72 59 87 71 114 95 16 14 41 34 55 45 15
11 40 31 56 45 39 33 78 65 115 95 69 56 87 71 115 95 16 14 41 34 56 45 14
11 39 31 55 45 33 28 70 60 114 95 72 59 87 71 114 95 16 14 41 34 55 45 15
11 40 31 56 45 16 14 41 34 56 45 14 11 39 31 55 45 43 38 97 82 169 140 72
58 126 102 169 140 16 14 41 34 55 45 15 11 40 31 55 45 16 14 41 34 55 45 15
11 40 31 56 45 28 25 53 45 106 85 14 11 39 31 54 45 15 14 40 34 54 45 15 11
40 31 55 45 16 14 41 34 56 45 15 11 37 30 50 43 12 12 26 22 30 22 4 0 18 10
30 22 13 13 35 32 50 43 15 11 40 31 55 45 15 14 40 34 54 45 15 11 40 31 56
45 28 25 53 45 106 85 14 11 39 31 54 45 15 14 40 34 54 45 15 11 40 31 55 45
16 14 41 34 56 45 15 11 37 30 50 43 12 12 26 22 30 22 4 0 18 10 30 23 13 12
35 31 50 42 15 11 40 31 55 45 15 14 40 34 54 45 15 11 40 31 56 45 28 25 53
45 106 85 14 11 39 31 55 45 15 14 40 34 55 45 14 11 39 31 54 45 15 14 40 34
54 45 15 11 40 31 56 45 28 25 53 45 106 85 14 11 39 31 54 45 15 14 40 34 54
45 15 11 40 31 55 45 16 14 41 34 56 45 15 11 37 30 50 43 12 12 26 22 30 22
4 0 18 10 30 23 13 12 35 31 50 42 15 11 40 31 55 45 15 14 40 34 54 45 15 11
40 31 56 45 31 27 64 54 105 85 14 11 39 31 54 45 16 14 41 34 55 45 15 11 40
31 55 45 16 14 41 34 56 45 15 11 37 30 50 43 12 12 26 22 30 22 4 0 18 10 30
23 21 20 42 37 87 70 16 11 17 142 17 2177 0 1191 -2 2251 -4 2355 -4 273 -17
608 -30 805 -4 52 -8 118 -10 145 -4 58 -15 178 -20 215 -2 14 -7 45 -10 70
-11 82 -19 125 -30 170 -3 14 -8 36 -11 50 -8 41 -58 131 -78 142 -23 12 -86
-6 -115 -34 -11 -10 -24 -18 -30 -18 -5 0 -11 -7 -15 -15 -3 -8 -12 -15 -21
-15 -8 0 -15 -5 -15 -10 0 -6 -8 -13 -17 -17 -18 -6 -39 -23 -71 -55 -9 -10
-20 -18 -24 -18 -5 0 -16 -8 -26 -17 -10 -10 -29 -25 -42 -33 -12 -8 -33 -24
-46 -35 -25 -22 -62 -51 -94 -75 -55 -41 -75 -57 -95 -77 -12 -13 -26 -23 -31
-23 -5 0 -17 -8 -26 -17 -9 -10 -28 -27 -43 -38 -14 -11 -37 -29 -50 -40 -13
-11 -36 -29 -51 -40 -14 -11 -37 -29 -50 -40 -13 -11 -36 -29 -50 -40 -14 -11
-37 -29 -50 -40 -13 -11 -36 -29 -50 -40 -14 -11 -39 -31 -54 -45 -15 -14 -40
-34 -54 -45 -14 -11 -37 -29 -50 -40 -27 -22 -61 -49 -102 -80 -14 -11 -39
-31 -54 -45 -31 -28 -65 -55 -105 -85 -15 -11 -37 -30 -50 -42 -12 -13 -26
-23 -30 -23 -4 0 -18 -10 -30 -22 -12 -13 -34 -32 -49 -43 -15 -11 -38 -30
-51 -42 -12 -13 -26 -23 -30 -23 -4 0 -18 -10 -30 -22 -12 -13 -34 -32 -49
-43 -15 -11 -40 -31 -56 -45 -28 -25 -53 -45 -106 -85 -14 -11 -39 -31 -54
-45 -15 -14 -40 -34 -54 -45 -15 -11 -40 -31 -55 -45 -16 -14 -41 -34 -55 -45
-15 -11 -40 -31 -55 -45 -16 -14 -41 -34 -55 -45 -15 -11 -37 -29 -50 -40 -14
-11 -38 -31 -56 -45 -17 -14 -44 -36 -60 -50 -15 -14 -40 -34 -54 -45 -15 -11
-40 -31 -56 -45 -15 -14 -41 -35 -57 -47 -37 -30 -77 -62 -112 -93 -16 -14
-41 -34 -55 -45 -15 -11 -40 -31 -55 -45 -16 -14 -41 -34 -55 -45 -15 -11 -40
-31 -56 -45 -16 -14 -43 -36 -60 -50 -18 -14 -44 -35 -58 -47 -15 -13 -39 -33
-55 -45 -15 -13 -40 -34 -56 -48 -16 -14 -41 -34 -55 -45 -15 -11 -40 -31 -56
-45 -17 -14 -43 -36 -60 -50 -17 -14 -43 -36 -59 -50 -16 -14 -41 -34 -55 -45
-15 -11 -40 -31 -56 -45 -17 -14 -43 -36 -60 -50 -50 -41 -94 -79 -115 -100
-12 -11 -25 -20 -29 -20 -5 0 -19 -10 -32 -22 -13 -13 -37 -34 -54 -48 -16
-14 -44 -36 -60 -50 -16 -14 -42 -35 -57 -48 -16 -13 -40 -33 -54 -45 -14 -12
-41 -33 -58 -47 -18 -14 -45 -36 -61 -50 -17 -14 -43 -36 -60 -50 -17 -14 -44
-36 -60 -50 -16 -14 -43 -36 -60 -50 -17 -14 -44 -36 -60 -50 -16 -14 -43 -36
-60 -50 -17 -14 -44 -36 -60 -50 -16 -14 -42 -35 -57 -48 -16 -13 -42 -35 -59
-50 -17 -15 -43 -36 -58 -47 -15 -11 -40 -31 -56 -45 -17 -14 -43 -36 -60 -50
-50 -41 -94 -79 -115 -100 -12 -11 -25 -20 -29 -20 -5 0 -18 -9 -30 -20 -20
-20 -50 -45 -116 -100 -17 -14 -43 -36 -59 -50 -16 -14 -41 -34 -55 -45 -15
-11 -40 -31 -56 -45 -17 -14 -43 -36 -60 -50 -17 -14 -43 -36 -59 -50 -56 -48
-89 -75 -115 -95 -15 -11 -40 -31 -56 -45 -17 -14 -43 -36 -60 -50 -17 -14
-43 -36 -59 -50 -56 -48 -89 -75 -115 -95 -15 -11 -40 -31 -56 -45 -17 -14
-43 -36 -60 -50 -50 -41 -94 -79 -115 -100 -12 -11 -25 -20 -29 -20 -5 0 -18
-9 -30 -20 -20 -20 -50 -45 -116 -100 -17 -14 -43 -36 -59 -50 -16 -14 -41
-34 -55 -45 -15 -11 -40 -31 -56 -45 -17 -14 -42 -35 -57 -48 -16 -12 -40 -32
-54 -45 -15 -12 -44 -35 -64 -52 -21 -16 -47 -40 -58 -52 -11 -13 -25 -23 -30
-23 -5 0 -20 -10 -33 -23 -13 -12 -37 -33 -54 -47 -46 -38 -93 -78 -115 -100
-12 -11 -25 -20 -29 -20 -5 0 -19 -10 -32 -22 -13 -13 -37 -34 -54 -48 -16
-14 -44 -36 -60 -50 -49 -41 -83 -70 -115 -95 -65 -54 -86 -71 -115 -95 -16
-14 -43 -36 -60 -50 -17 -14 -43 -36 -59 -50 -16 -14 -41 -34 -55 -45 -15 -11
-40 -31 -56 -45 -17 -14 -43 -36 -60 -50 -17 -14 -43 -36 -59 -50 -56 -48 -89
-75 -115 -95 -15 -11 -40 -31 -56 -45 -17 -14 -43 -36 -60 -50 -50 -41 -94
-79 -115 -100 -12 -11 -25 -20 -29 -20 -5 0 -19 -10 -32 -22 -13 -13 -37 -34
-54 -48 -16 -14 -44 -36 -60 -50 -16 -14 -43 -36 -60 -50 -17 -14 -40 -35 -52
-47 -12 -13 -26 -23 -31 -23 -6 0 -19 -9 -31 -20 -20 -20 -50 -45 -116 -100
-17 -14 -43 -36 -59 -50 -16 -14 -41 -34 -55 -45 -15 -11 -40 -31 -56 -45 -17
-14 -43 -36 -60 -50 -17 -14 -40 -33 -51 -44 -21 -18 -22 -18 -43 3 -22 21
-65 59 -116 101 -17 14 -44 36 -60 50 -16 14 -43 36 -60 50 -17 14 -44 36 -60
50 -16 14 -43 36 -60 50 -17 14 -44 36 -60 50 -16 14 -43 36 -60 50 -17 14
-44 36 -60 50 -16 14 -43 36 -60 50 -17 14 -44 36 -60 50 -16 14 -43 36 -60
50 -17 14 -44 36 -60 50 -16 14 -43 36 -60 50 -17 14 -44 36 -60 50 -16 14
-44 36 -60 50 -17 14 -41 35 -54 48 -13 12 -28 22 -33 22 -5 0 -19 10 -31 23
-12 12 -36 33 -53 47 -46 37 -88 72 -119 100 -16 14 -45 39 -66 55 -20 17 -49
40 -63 52 -14 12 -38 32 -54 45 -15 13 -41 34 -57 48 -16 14 -43 36 -60 50
-17 14 -44 36 -60 50 -16 14 -43 36 -60 50 -17 14 -44 36 -60 50 -16 14 -43
36 -60 50 -17 14 -44 36 -60 50 -16 14 -43 36 -60 50 -17 14 -44 36 -60 50
-16 14 -43 36 -60 50 -17 14 -44 36 -60 50 -16 14 -43 36 -60 50 -17 14 -44
36 -60 50 -16 14 -44 36 -60 50 -17 14 -41 35 -54 48 -13 12 -28 22 -33 22 -5
0 -19 10 -31 23 -12 12 -36 33 -53 47 -17 14 -44 36 -61 50 -16 14 -43 36 -60
50 -16 14 -43 36 -58 50 -16 14 -43 36 -61 50 -17 14 -44 36 -60 50 -16 14
-42 36 -59 50 -17 14 -44 36 -60 50 -16 14 -43 36 -60 50 -17 14 -44 36 -60
50 -16 14 -43 36 -60 50 -17 14 -44 36 -60 50 -16 14 -43 36 -60 50 -17 14
-44 36 -60 50 -16 14 -43 36 -60 50 -17 14 -44 36 -60 50 -16 14 -43 36 -60
50 -17 14 -44 36 -60 50 -16 14 -43 36 -60 50 -66 55 -96 80 -116 100 -12 11
-25 20 -30 20 -5 0 -21 12 -35 28 -14 15 -38 36 -53 47 -42 31 -79 62 -181
150 -13 11 -38 31 -56 45 -17 14 -44 36 -60 50 -27 24 -41 35 -114 95 -37 30
-76 62 -115 95 -16 14 -41 34 -56 45 -14 11 -39 31 -55 45 -27 24 -42 36 -114
95 -72 58 -87 71 -109 93 -13 12 -28 22 -33 22 -5 0 -19 10 -31 23 -12 12 -34
32 -49 45 -15 12 -40 32 -55 45 -14 12 -41 33 -58 47 -18 14 -42 35 -55 48
-12 12 -26 22 -30 22 -4 0 -19 11 -34 25 -60 57 -68 65 -77 65 -4 0 -17 9 -29
20 -29 28 -80 72 -111 95 -14 11 -39 31 -55 45 -15 14 -40 34 -55 45 -14 11
-39 31 -54 45 -16 14 -43 36 -60 50 -18 14 -42 34 -56 45 -13 11 -35 29 -50
40 -14 11 -39 31 -55 45 -15 14 -40 34 -55 45 -14 11 -39 31 -55 45 -15 14
-40 34 -55 45 -14 11 -39 31 -55 45 -15 14 -40 34 -55 45 -14 11 -39 31 -55
45 -15 14 -40 34 -55 45 -14 11 -39 31 -54 45 -15 14 -40 34 -55 45 -15 11
-37 30 -50 43 -12 12 -26 22 -30 22 -4 0 -18 10 -30 23 -13 12 -35 31 -50 42
-15 11 -40 31 -56 45 -15 14 -40 34 -55 45 -14 11 -39 31 -54 45 -27 24 -52
44 -106 85 -14 11 -39 31 -55 45 -15 14 -40 34 -55 45 -15 11 -37 30 -49 43
-12 12 -26 22 -30 22 -4 0 -18 10 -30 23 -13 12 -36 31 -51 42 -15 11 -37 30
-49 43 -12 12 -26 22 -30 22 -4 0 -18 10 -30 23 -13 12 -36 31 -51 42 -15 11
-37 30 -49 43 -12 12 -26 22 -30 22 -4 0 -18 10 -30 23 -13 12 -35 31 -50 42
-15 11 -37 29 -50 40 -13 11 -37 31 -54 45 -17 14 -42 34 -56 45 -13 11 -36
29 -51 40 -15 11 -37 30 -49 43 -12 12 -26 22 -30 22 -4 0 -18 10 -30 23 -12
12 -34 31 -49 42 -15 11 -38 29 -51 40 -14 11 -37 29 -52 40 -14 11 -36 30
-48 43 -12 12 -26 22 -30 22 -4 0 -18 10 -30 23 -12 12 -34 31 -49 42 -15 11
-38 29 -51 40 -14 11 -37 29 -51 40 -14 11 -37 29 -50 40 -13 11 -36 29 -51
40 -14 11 -36 30 -48 43 -12 12 -26 22 -30 22 -4 0 -18 10 -30 23 -12 12 -34
31 -49 42 -15 11 -35 28 -44 38 -9 9 -22 17 -29 17 -7 0 -17 9 -23 20 -6 11
-16 20 -23 20 -7 0 -20 8 -29 18 -9 9 -29 26 -43 37 -52 39 -77 60 -93 78 -9
9 -21 17 -27 17 -6 0 -18 8 -27 18 -9 9 -23 22 -30 27 -7 6 -21 16 -30 23 -29
23 -73 22 -106 -1z"/>
</g>
</svg>
