<svg id="Layer_5" enable-background="new 0 0 64 64" height="512" viewBox="0 0 64 64" width="512" xmlns="http://www.w3.org/2000/svg" xmlns:xlink="http://www.w3.org/1999/xlink"><linearGradient id="SVGID_1_" gradientUnits="userSpaceOnUse" x1="32" x2="32" y1="63" y2="1"><stop offset="0" stop-color="#9f2fff"/><stop offset="1" stop-color="#0bb1d3"/></linearGradient><path d="m27 27h2v2h-2zm4 2h2v-2h-2zm4-2v2h2v-2zm-8 10h2v-2h-2zm4 0h2v-2h-2zm4-2v2h2v-2zm8.982-13.568c2.284 2.587 3.74 5.91 3.968 9.568h5.152c.465-2.279 2.484-4 4.899-4 2.757 0 5 2.243 5 5s-2.243 5-5 5c-2.414 0-4.434-1.721-4.899-4h-5.152c-.228 3.658-1.683 6.981-3.968 9.568l2.694 2.694c1.724-1.412 3.926-2.262 6.324-2.262 5.514 0 10 4.486 10 10s-4.486 10-10 10-10-4.486-10-10c0-2.398.85-4.6 2.262-6.324l-2.694-2.694c-2.822 2.492-6.516 4.018-10.568 4.018-4.45 0-8.626-1.846-11.649-5.07-.312.282-.643.542-.997.773 5.593 1.835 9.646 7.098 9.646 13.297v6h-28v-6c0-6.199 4.053-11.462 9.646-13.298-2.191-1.428-3.646-3.897-3.646-6.702 0-4.411 3.589-8 8-8 .437 0 .863.045 1.281.112.534-2.936 1.853-5.567 3.727-7.691l-2.683-2.683c-1.725 1.412-3.927 2.262-6.325 2.262-5.514 0-10-4.486-10-10s4.486-10 10-10 10 4.486 10 10c0 2.398-.85 4.6-2.262 6.324l2.676 2.676c2.595-2.289 5.935-3.728 9.586-3.954v-5.148c-2.279-.464-4-2.484-4-4.898 0-2.757 2.243-5 5-5s5 2.243 5 5c0 2.414-1.721 4.434-4 4.899v5.152c3.658.228 6.981 1.683 9.568 3.968l2.694-2.694c-1.412-1.725-2.262-3.927-2.262-6.325 0-5.514 4.486-10 10-10s10 4.486 10 10-4.486 10-10 10c-2.398 0-4.6-.85-6.324-2.262zm11.018 10.568c0 1.654 1.346 3 3 3s3-1.346 3-3-1.346-3-3-3-3 1.346-3 3zm-2-13c1.798 0 3.454-.604 4.792-1.609-1.125-1.491-2.895-2.391-4.792-2.391s-3.667.899-4.792 2.391c1.338 1.005 2.994 1.609 4.792 1.609zm0-6c1.654 0 3-1.346 3-3s-1.346-3-3-3-3 1.346-3 3 1.346 3 3 3zm-8-2c0 1.893.664 3.633 1.768 5.004.792-.986 1.796-1.763 2.931-2.278-1.034-.917-1.699-2.239-1.699-3.726 0-2.757 2.243-5 5-5s5 2.243 5 5c0 1.487-.665 2.809-1.699 3.726 1.135.516 2.139 1.293 2.931 2.278 1.104-1.371 1.768-3.111 1.768-5.004 0-4.411-3.589-8-8-8s-8 3.589-8 8zm-9.976 7.338c1.114 1.136 2.417 2.699 3.53 4.662h4.155c-1.949-2.314-4.63-3.986-7.685-4.662zm1.158 22.662h-8.363c1.542 2.368 3.297 3.992 4.182 4.727.883-.735 2.638-2.359 4.181-4.727zm1.142-2c.849-1.732 1.473-3.748 1.624-6h-13.895c.15 2.252.775 4.268 1.624 6zm-15.406-6c.684 1.178 1.082 2.542 1.082 4 0 .692-.097 1.359-.263 2h1.725c-.753-1.764-1.282-3.771-1.411-6zm17.029-2c-.15-2.252-.775-4.268-1.624-6h-10.647c-.849 1.732-1.473 3.748-1.624 6zm-2.765-8c-1.542-2.368-3.298-3.992-4.182-4.727-.884.734-2.639 2.358-4.182 4.727zm-4.182-14c1.654 0 3-1.346 3-3s-1.346-3-3-3-3 1.346-3 3 1.346 3 3 3zm-10.713 14h4.159c1.112-1.961 2.413-3.523 3.526-4.659-3.049.672-5.733 2.336-7.685 4.659zm-16.519-6.996c.792-.986 1.796-1.763 2.931-2.278-1.034-.917-1.699-2.239-1.699-3.726 0-2.757 2.243-5 5-5s5 2.243 5 5c0 1.487-.665 2.809-1.699 3.726 1.135.516 2.139 1.293 2.931 2.278 1.104-1.371 1.768-3.111 1.768-5.004 0-4.411-3.589-8-8-8s-8 3.589-8 8c0 1.893.664 3.632 1.768 5.004zm6.232-3.004c1.654 0 3-1.346 3-3s-1.346-3-3-3-3 1.346-3 3 1.346 3 3 3zm0 6c1.798 0 3.454-.604 4.792-1.609-1.125-1.491-2.895-2.391-4.792-2.391s-3.667.899-4.792 2.391c1.338 1.005 2.994 1.609 4.792 1.609zm7.213 10.679c.756.333 1.448.782 2.061 1.321h2.777c.128-2.229.658-4.236 1.411-6h-4.575c-.817 1.416-1.393 2.991-1.674 4.679zm.57 23.124 2.287-2.287.614-3.476c-.609-.41-1.259-.763-1.94-1.057l-4.294 13.956 4.359-5.085zm-7.566 0-1.025 2.051 4.359 5.085-4.294-13.957c-.681.294-1.331.648-1.94 1.057l.614 3.476zm-8.217 8.197h3v-5h2v5h4.826l-5.017-5.854.975-1.949-1.714-1.713-.527-2.987c-2.187 2.175-3.543 5.183-3.543 8.503zm20.457-12.503-.527 2.987-1.713 1.713.975 1.949-5.018 5.854h4.826v-5h2v5h3v-4c0-3.32-1.356-6.328-3.543-8.503zm-8.457-3.497c-.982 0-1.931.131-2.845.355l2.845 9.245 2.845-9.245c-.914-.224-1.863-.355-2.845-.355zm0-2c3.309 0 6-2.691 6-6s-2.691-6-6-6-6 2.691-6 6 2.691 6 6 6zm13.983 2.669c-1.115-1.136-2.422-2.702-3.536-4.669h-3.529c-.081.139-.161.277-.25.411 1.967 2.16 4.51 3.642 7.315 4.258zm13.725-4.669h-4.155c-1.113 1.963-2.416 3.526-3.53 4.662 3.056-.676 5.737-2.348 7.685-4.662zm10.292 20c1.798 0 3.454-.604 4.792-1.609-1.125-1.491-2.895-2.391-4.792-2.391s-3.667.899-4.792 2.391c1.338 1.005 2.994 1.609 4.792 1.609zm0-6c1.654 0 3-1.346 3-3s-1.346-3-3-3-3 1.346-3 3 1.346 3 3 3zm0-10c-4.411 0-8 3.589-8 8 0 1.893.664 3.633 1.768 5.004.792-.986 1.796-1.763 2.931-2.278-1.034-.917-1.699-2.239-1.699-3.726 0-2.757 2.243-5 5-5s5 2.243 5 5c0 1.487-.665 2.809-1.699 3.726 1.135.516 2.139 1.293 2.931 2.278 1.104-1.371 1.768-3.111 1.768-5.004 0-4.411-3.589-8-8-8zm-7.051-12h-5c-.128 2.229-.658 4.236-1.411 6h4.567c1.04-1.789 1.69-3.825 1.844-6zm0-2c-.155-2.175-.805-4.211-1.844-6h-4.567c.753 1.764 1.282 3.771 1.411 6z" fill="url(#SVGID_1_)"/></svg>