<svg id="Layer_5" enable-background="new 0 0 64 64" height="512" viewBox="0 0 64 64" width="512" xmlns="http://www.w3.org/2000/svg" xmlns:xlink="http://www.w3.org/1999/xlink"><linearGradient id="SVGID_1_" gradientUnits="userSpaceOnUse" x1="32" x2="32" y1="63" y2="1"><stop offset="0" stop-color="#9f2fff"/><stop offset="1" stop-color="#0bb1d3"/></linearGradient><path d="m19 11h-2v-2h2zm4-2h-2v2h2zm-8 0h-2v2h2zm45.584.616 2.416.603v7.562l-2.416.603 1.281 2.136-4.865 4.864v32.616c0 2.757-2.243 5-5 5h-46c-2.757 0-5-2.243-5-5v-22c0-2.757 2.243-5 5-5h3v-26h31.615l2.866-2.865 2.134 1.281.604-2.416h7.562l.603 2.416 2.134-1.281 5.347 5.346zm-49.584-2.616v6h13.586l2-2h10.414v-.781l2.416-.603-1.282-2.136.481-.48zm-8 29v3h43.816c-.414-1.161-1.514-2-2.816-2h-26.5l-2.1-2.801c-.563-.751-1.461-1.199-2.4-1.199h-7c-1.654 0-3 1.346-3 3zm45.002 25c-.628-.836-1.002-1.875-1.002-3v-17h-44v17c0 1.654 1.346 3 3 3zm6.998-3v-33.046l-.616-.37-.603 2.416h-7.562l-.603-2.416-2.134 1.281-5.347-5.346 1.281-2.136-2.416-.602v-4.781h-9.586l-2 2h-14.414v16h2c1.565 0 3.061.747 4 1.999l1.5 2.001h25.5c2.757 0 5 2.243 5 5v18c0 1.654 1.346 3 3 3s3-1.346 3-3zm3.554-46.83-.503-1.22 1.296-2.159-3.138-3.139-2.158 1.296-1.142-.464-.203-.535-.487-1.949h-4.438l-.612 2.452-1.22.496-2.158-1.296-3.138 3.139 1.296 2.159-.503 1.22-2.446.611v4.438l2.446.611.503 1.22-1.296 2.159 3.138 3.139 2.158-1.296 1.142.464.203.535.487 1.949h4.438l.612-2.452 1.22-.496 2.158 1.296 3.138-3.139-1.296-2.159.466-1.139.534-.205 1.949-.487v-4.438zm-1.554 2.83c0 3.859-3.14 7-7 7s-7-3.141-7-7 3.14-7 7-7 7 3.141 7 7zm-2 0c0-2.757-2.243-5-5-5s-5 2.243-5 5 2.243 5 5 5 5-2.243 5-5zm-48 21h-2v2h2zm4 0h-2v2h2zm4 0h-2v2h2zm2.4-17.8-5.067 3.8 5.066 3.8 1.2-1.6-2.932-2.2 2.934-2.2zm21 9.6 2.934 2.2-2.934 2.2 1.2 1.6 5.066-3.8-5.066-3.8zm-17.4-7.8h14v-2h-14zm0 4h14v-2h-14zm0 4h14v-2h-14zm0 4h10v-2h-10zm12 0h2v-2h-2zm-4.64 15.769 5.078 4.231-5.078 4.231 1.28 1.537 6.922-5.768-6.922-5.769zm-8-1.538-6.922 5.769 6.922 5.769 1.28-1.537-5.078-4.232 5.078-4.231zm1.67 13.527 1.94.484 4-16-1.94-.484zm-17.03-13.758h2v-2h-2zm0 8h2v-2h-2zm0-4h2v-2h-2zm38 6h2v-2h-2zm0-4h2v-2h-2zm0 8h2v-2h-2zm8 0h2v-2h-2zm0-4h2v-2h-2zm0-4h2v-2h-2zm2-37c0 1.654-1.346 3-3 3s-3-1.346-3-3 1.346-3 3-3 3 1.346 3 3zm-2 0c0-.552-.449-1-1-1s-1 .448-1 1 .449 1 1 1 1-.448 1-1z" fill="url(#SVGID_1_)"/></svg>