<svg xmlns="http://www.w3.org/2000/svg" height="512" width="512.0009765625" style=""><rect id="backgroundrect" width="100%" height="100%" x="0" y="0" fill="none" stroke="none"/><g class="currentLayer" style=""><title>Layer 1</title><path d="m488.0724542025146,292.21698620251465 c2.640625,-14.386719 4.027344,-29.109376 4.027344,-43.828126 c0,-32.636718 -6.386719,-64.296874 -19.011719,-94.105468 c-12.179687,-28.792969 -29.605469,-54.648438 -51.820312,-76.847656 c-22.183594,-22.203126 -48.058594,-39.625 -76.835938,-51.804688 c-29.796875,-12.609375 -61.460937,-19 -94.09375,-19 c-15.382812,0 -30.789062,1.4453120000000002 -45.78125,4.324219 c-0.03125000000000001,0.007812000000000002 -0.07421900000000001,0.007812000000000002 -0.11328100000000002,0.015625000000000003 c-20.570312,-10.9375 -43.703125,-16.777344 -67.121094,-16.777344 c-38.230468,0 -74.175781,14.886719 -101.207031,41.929688 c-27.027344,27.03125 -41.921875,62.976562 -41.921875,101.207031 c0,24.332031 6.261719,48.253906 18.007812,69.390625 c-2.382812,13.695312 -3.6406240000000003,27.691406 -3.6406240000000003,41.667968 c0,32.644532 6.390624,64.300782 19.015624,94.113282 c12.160157,28.800781 29.59375,54.640625 51.789063,76.84375 c22.214844,22.199218 48.054687,39.648437 76.863281,51.796875 c29.800782,12.632812 61.472656,19.027343 94.105469,19.027343 c14.207031,0 28.445313,-1.296874 42.34375,-3.761718 c21.414063,12.113281 45.65625,18.550781 70.414063,18.550781 c38.222656,0 74.148437,-14.859375 101.183593,-41.910156 c27.039063,-27.015625 41.917969,-62.96875 41.917969,-101.199219 c0,-24.414062 -6.292969,-48.414062 -18.121094,-69.632812 zm0,0 " fill="#ffffff" id="svg_1" class="" fill-opacity="1"/><path d="m257.105469,402.261719 c-85.890625,0 -124.316407,-42.226563 -124.316407,-73.875 c0,-16.230469 11.984376,-27.609375 28.5,-27.609375 c36.757813,0 27.238282,52.777344 95.816407,52.777344 c35.109375,0 54.496093,-19.0625 54.496093,-38.570313 c0,-11.734375 -5.7890619999999995,-24.738281 -28.90625,-30.4375 l-76.394531,-19.070313 c-61.527343,-15.429687 -72.691406,-48.691406 -72.691406,-79.957031 c0,-64.914062 61.121094,-89.289062 118.519531,-89.289062 c52.875,0 115.203125,29.222656 115.203125,68.167969 c0,16.6875 -14.449219,26.390624 -30.960937,26.390624 c-31.367188,0 -25.597656,-43.417968 -88.785156,-43.417968 c-31.355469,0 -48.722657,14.199218 -48.722657,34.515625 c0,20.28125 24.765625,26.757812 46.265625,31.65625 l56.546875,12.550781 c61.941407,13.800781 77.644531,49.964844 77.644531,84.027344 c0.003907000000000001,52.75 -40.488281,92.140625 -122.214843,92.140625 zm0,0 " fill="#fff" class="" id="svg_4"/><path d="m257.105469 402.261719c-85.890625 0-124.316407-42.226563-124.316407-73.875 0-16.230469 11.984376-27.609375 28.5-27.609375 36.757813 0 27.238282 52.777344 95.816407 52.777344 35.109375 0 54.496093-19.0625 54.496093-38.570313 0-11.734375-5.789062-24.738281-28.90625-30.4375l-76.394531-19.070313c-61.527343-15.429687-72.691406-48.691406-72.691406-79.957031 0-64.914062 61.121094-89.289062 118.519531-89.289062 52.875 0 115.203125 29.222656 115.203125 68.167969 0 16.6875-14.449219 26.390624-30.960937 26.390624-31.367188 0-25.597656-43.417968-88.785156-43.417968-31.355469 0-48.722657 14.199218-48.722657 34.515625 0 20.28125 24.765625 26.757812 46.265625 31.65625l56.546875 12.550781c61.941407 13.800781 77.644531 49.964844 77.644531 84.027344.003907 52.75-40.488281 92.140625-122.214843 92.140625zm0 0" fill="#484848" id="svg_2" class="selected" fill-opacity="1"/></g></svg>