<?xml version="1.0"?>
<svg xmlns="http://www.w3.org/2000/svg" xmlns:xlink="http://www.w3.org/1999/xlink" id="Gradient" viewBox="0 0 512 512" width="512" height="512"><defs><linearGradient id="linear-gradient" x1="256" y1="496" x2="256" y2="16" gradientUnits="userSpaceOnUse"><stop offset="0" stop-color="#12c2e9"/><stop offset="0.5" stop-color="#c471ed"/><stop offset="1" stop-color="#f64f59"/></linearGradient></defs><path d="M160,336a24.027,24.027,0,0,0-24,24v32a8,8,0,0,0,8,8h32a8,8,0,0,0,8-8V360A24.027,24.027,0,0,0,160,336Zm8,48H152V360a8,8,0,0,1,16,0Zm-8-128a24.027,24.027,0,0,0-24,24v32a8,8,0,0,0,8,8h32a8,8,0,0,0,8-8V280A24.027,24.027,0,0,0,160,256Zm8,48H152V280a8,8,0,0,1,16,0Zm88-48a24.027,24.027,0,0,0-24,24v32a8,8,0,0,0,8,8h32a8,8,0,0,0,8-8V280A24.027,24.027,0,0,0,256,256Zm8,48H248V280a8,8,0,0,1,16,0Zm88,32a24.027,24.027,0,0,0-24,24v32a8,8,0,0,0,8,8h32a8,8,0,0,0,8-8V360A24.027,24.027,0,0,0,352,336Zm8,48H344V360a8,8,0,0,1,16,0Zm-8-128a24.027,24.027,0,0,0-24,24v32a8,8,0,0,0,8,8h32a8,8,0,0,0,8-8V280A24.027,24.027,0,0,0,352,256Zm8,48H344V280a8,8,0,0,1,16,0ZM488,160h-6.615L264,82.363V64h40a8,8,0,0,0,8-8V24a8,8,0,0,0-8-8H256a8,8,0,0,0-8,8V82.363L30.615,160H24a8,8,0,0,0-8,8v32a8,8,0,0,0,8,8V416a8,8,0,0,0-8,8v64a8,8,0,0,0,8,8H488a8,8,0,0,0,8-8V424a8,8,0,0,0-8-8V208a8,8,0,0,0,8-8V168A8,8,0,0,0,488,160ZM264,32h32V48H264ZM32,192V176H480v16ZM256,96.5,433.815,160H78.185ZM40,400h64v16H40Zm368,64v16H104V464ZM120,448V432H392v16Zm144-32H248V352h16Zm128,0H312V280a40,40,0,0,1,80,0Zm-96,0H280V344a8,8,0,0,0-8-8H240a8,8,0,0,0-8,8v72H216V280a40,40,0,0,1,80,0Zm-96,0H120V280a40,40,0,0,1,80,0ZM32,432h72v16H96a8,8,0,0,0-8,8v24H32Zm448,48H424V456a8,8,0,0,0-8-8h-8V432h72Zm-72-64V400h64v16Zm64-32H408V280a55.987,55.987,0,0,0-104-28.81,55.964,55.964,0,0,0-96,0A55.987,55.987,0,0,0,104,280V384H40V208H472Z" style="fill:url(#linear-gradient)"/></svg>
